# xmcd
#
# Track frame offsets:
#	150
#	15205
#	30947
#	46145
#	60542
#	79092
#	94757
#	108545
#	125540
#	146267
#	163055
#	177547
#	194932
#	219002
#
# Disc length: 3258 seconds
#
# Revision: 1
# Processed by: cddbd v1.5PL3 Copyright (c) Steve Scherf et al.
# Submitted via: EasyCDDAExtractor 6.2.0.3
#
DISCID=b40cb80e
DTITLE=Nora Jones - Feels like home
DYEAR=2004
DGENRE=Soul
TTITLE0=Sunrise
TTITLE1=What am I to you ?
TTITLE2=Those sweet words
TTITLE3=Carnival town
TTITLE4=In the morning
TTITLE5=Be here to love me
TTITLE6=Creepin' in
TTITLE7=Toes
TTITLE8=Humble me
TTITLE9=Above Ground
TTITLE10=The long way home
TTITLE11=The prettiest thing
TTITLE12=Don't miss you at all
TTITLE13=Copy Protection Track -
EXTD=
EXTT0=
EXTT1=
EXTT2=
EXTT3=
EXTT4=
EXTT5=
EXTT6=
EXTT7=
EXTT8=
EXTT9=
EXTT10=
EXTT11=
EXTT12=
EXTT13=
PLAYORDER=
